<svg xmlns="http://www.w3.org/2000/svg" viewBox="0 0 369.7 83.6" witdh="370" height="84" xml:space="preserve"><style>.st0{fill:#1a2f50}</style><path class="st0" d="M13.4 71.9c-.2-1.5-.7-2.6-1.6-3.5-.9-.8-2-1.2-3.4-1.2-.8 0-1.6.2-2.4.5-.7.4-1.4.9-1.9 1.5-.6.7-1 1.5-1.3 2.4-.3.9-.5 2-.5 3.2 0 1.5.3 2.8.9 4 .6 1.1 1.3 2 2.3 2.7 1 .6 2 1 3.2 1 1 0 2-.2 3-.7 1-.5 1.8-1.1 2.5-2l.6.5c-.7.9-1.4 1.7-2.2 2.2-.8.5-1.6.9-2.4 1-.8.2-1.5.3-2.2.3-1.2 0-2.3-.2-3.3-.6-1-.4-1.8-1-2.6-1.8-.7-.8-1.3-1.7-1.7-2.7-.4-1-.6-2.1-.6-3.3 0-1.1.2-2.2.5-3.3.3-1.1.9-2 1.5-2.9s1.5-1.5 2.6-2c1-.5 2.2-.8 3.6-.8.9 0 1.7.1 2.5.4.8.2 1.6.6 2.3 1.1l-.1-1.3H14v5.5h-.6zM23.6 83.2v-.8c.5 0 .8-.1 1.1-.4s.5-.6.6-1c.2-.4.4-1 .6-1.5l4.9-13.4h.6l5.3 13.5c.1.3.3.8.4 1.3.2.5.2 1 .2 1.3h1.6v1h-5.5v-.8c.6 0 1-.2 1.2-.4.2-.3.3-.6.2-.9 0-.3-.1-.7-.2-1l-.8-2.1-6.2.1-.8 2.5c-.1.4-.2.7-.3.9-.1.2-.2.5-.3.7H28v1h-4.4zm4.4-6.1h5.5l-1.7-4.5c-.2-.5-.4-1-.5-1.5-.2-.5-.4-1-.5-1.5-.2.4-.3.9-.5 1.3s-.3.9-.5 1.4L28 77.1zM48.5 83.2v-.8c.6 0 1-.2 1.2-.4s.3-.6.4-1.1V67.4h-1.8v-1H53.6c1.8 0 3.3.3 4.3 1s1.5 1.7 1.5 3.1c0 .5-.1 1-.4 1.5-.3.5-.7 1-1.3 1.3-.6.4-1.3.7-2.2.8 1.7 0 3.1.4 4 1.2.9.8 1.3 1.8 1.3 3 0 1-.2 1.8-.7 2.5-.5.7-1.2 1.2-2 1.6-.8.4-1.8.6-2.9.6h-6.7zm3.6-.9h2.5c1.2 0 2.2-.3 3-.9.8-.6 1.1-1.5 1.1-2.7 0-1-.2-1.7-.6-2.3-.4-.5-.9-.9-1.5-1.1-.6-.2-1.3-.3-2-.3h-1.3c-.4 0-.8 0-1.2.1v6.5c.1.2 0 .5 0 .7zm.1-8.2h1.7c.9 0 1.6-.2 2.1-.6.5-.4.9-.8 1.1-1.3.2-.5.3-1.1.3-1.7 0-.9-.2-1.5-.6-2-.4-.4-.8-.7-1.4-.9-.5-.2-1.1-.2-1.6-.2s-.9.1-1.2.2c-.3.1-.4.4-.5.7-.1.3-.1.8-.1 1.4v4.4zM76.9 67.4c-.6 0-1 .2-1.2.4-.2.3-.4.6-.4 1v12.7c0 .3 0 .6-.1.8H77v1h-5.4v-.8c.6 0 1-.2 1.2-.4.2-.2.3-.6.4-1V67.6h-1.8v-1h5.4v.8zM101 83.6l-9.5-12.8c-.1-.2-.3-.4-.4-.6-.1-.2-.3-.4-.4-.6l.1 10.2v2.4h1.8v1H88v-.8c.5 0 .8-.1 1.1-.3.2-.2.4-.5.4-.8.1-.3.1-.6.1-.8V67.5H88v-1h2.8l8.9 11.9c.2.3.4.5.6.8.2.3.4.5.6.8V67.4h-1.8v-1h4.4v.8c-.6 0-1 .2-1.2.4-.2.3-.3.6-.4 1v14.8h-.9zM122.9 77.1c0-.7-.1-1.2-.3-1.5-.2-.3-.5-.5-.9-.5-.4-.1-1-.1-1.6 0l-1.7.1v6.6c0 .3 0 .6-.1.8l4.5-.1c.7 0 1.3-.1 1.8-.3.5-.2.9-.6 1.2-1.1.3-.5.4-1.3.4-2.2h.8l-.1 4.6h-12.3v-.8c.6 0 1-.2 1.2-.4.2-.2.3-.6.4-1V67.6h-1.8v-1H126l.1 4.2h-.8c0-.9-.1-1.6-.4-2.1-.3-.5-.7-.8-1.2-1s-1-.2-1.6-.2h-2c-.6 0-1 .1-1.3.3s-.4.5-.5.9c-.1.4-.1.9-.1 1.6v3.8h4.5l-.2-2h1v5h-.6zM150.3 71.6c0-.9-.1-1.7-.3-2.3-.2-.6-.5-1.1-.9-1.4-.4-.3-1.1-.5-1.9-.4h-2v14.1c0 .3 0 .6-.1.8h2v1h-5.6v-.8c.6 0 1-.2 1.2-.4.2-.3.3-.6.4-1V67.6h-2.5c-1 0-1.7.3-2.1 1-.4.7-.6 1.7-.6 3.1h-.9l.1-5H151l.1 5h-.8zM176.3 82.5c.6 0 1-.2 1.2-.4.2-.2.3-.6.4-1V67.6h-1.8v-1h5.6c1.4 0 2.7.2 3.9.5 1.2.3 2.2.8 3.1 1.5.9.7 1.5 1.6 2 2.6.5 1.1.7 2.3.7 3.7 0 1.1-.2 2.1-.6 3.1-.4 1-1 1.9-1.7 2.7-.8.8-1.7 1.4-2.8 1.8-1.1.5-2.4.7-3.9.7h-6.3v-.7zm3.7-2.1v1.1c0 .3 0 .6-.1.8h2.6c1 0 2-.2 2.8-.6.8-.4 1.5-.9 2.1-1.6.6-.7 1.1-1.5 1.4-2.4.3-.9.5-1.9.5-3 0-1.5-.3-2.8-.8-3.9s-1.4-2-2.5-2.6c-1.1-.6-2.6-.9-4.3-.9-.6 0-1 .1-1.2.4-.2.2-.4.6-.4 1v11.7zM202.8 71.8l-.6-.5c.2-.2.4-.5.5-1 .2-.4.3-.9.5-1.4.1-.5.1-1 .1-1.5-.1 0-.2.1-.3.1h-.3c-.3 0-.6-.1-.8-.3-.2-.2-.3-.5-.3-.8 0-.4.1-.8.4-1 .3-.2.6-.4.9-.4.6 0 1 .2 1.3.6.3.4.4.9.4 1.5 0 .4-.1.9-.2 1.5-.2.6-.4 1.1-.6 1.7-.3.7-.6 1.2-1 1.5zM212.2 83.2v-.8c.5 0 .8-.1 1.1-.4.3-.3.5-.6.6-1 .2-.4.4-1 .6-1.5l4.9-13.4h.6l5.3 13.5c.1.3.3.8.4 1.3.2.5.2 1 .2 1.3h1.6v1H222v-.8c.6 0 1-.2 1.2-.4.2-.3.3-.6.2-.9 0-.3-.1-.7-.2-1l-.8-2.2-6.2.1-.8 2.5c-.1.4-.2.7-.3.9-.1.2-.2.5-.3.7h1.8v1h-4.4zm4.4-6.1h5.5l-1.7-4.5c-.2-.5-.4-1-.5-1.5-.2-.5-.4-1-.5-1.5-.2.4-.3.9-.5 1.3s-.3.9-.5 1.4l-1.8 4.8zM242.5 83.5 237 70.8c-.3-.8-.6-1.5-.7-2-.1-.5-.2-.9-.3-1.3h-1.4v-1h5.5v.8c-.8 0-1.3.3-1.4.7-.2.4-.1 1.1.2 1.8.4.9.7 1.8 1.1 2.7.3.9.7 1.8 1.2 2.8.4.9.7 1.7 1.1 2.6.4.8.6 1.5.8 2 .2-.6.4-1.1.5-1.6.2-.5.4-1.1.7-1.8.5-1.3.9-2.5 1.2-3.4.3-.9.6-1.7.8-2.4.2-.6.4-1.2.6-1.7.1-.4.3-.8.4-1 .1-.3.2-.5.3-.7h-1.8v-1h4.8v.8c-.7 0-1.2.2-1.6.5-.4.3-.7.9-1 1.8 0 .1-.1.2-.1.3s-.1.4-.2.7c-.1.3-.3.7-.5 1.3-.2.6-.5 1.4-.8 2.3-.4 1-.8 2.2-1.4 3.7-.5 1.5-1.2 3.3-2 5.4h-.5zM268 83.6c-1.5 0-2.8-.3-3.9-.8s-2-1.2-2.6-2c-.7-.8-1.2-1.8-1.5-2.8-.3-1-.5-2.1-.5-3.1s.2-2 .5-3 .8-2 1.5-2.8 1.6-1.5 2.6-2.1c1-.5 2.3-.8 3.7-.8 1.5 0 2.7.3 3.8.8 1.1.5 1.9 1.2 2.6 2.1.7.9 1.2 1.8 1.5 2.8.3 1 .5 2 .5 3s-.2 2-.5 3-.8 2-1.5 2.8-1.6 1.6-2.6 2.1c-1 .6-2.2.8-3.6.8zm.1-.9c1 0 1.8-.2 2.6-.6.7-.4 1.3-1 1.8-1.7s.8-1.5 1.1-2.4c.2-.9.4-1.7.4-2.6 0-1-.1-2-.4-2.9-.3-1-.7-1.8-1.2-2.6s-1.2-1.4-1.9-1.9c-.8-.5-1.6-.7-2.6-.7s-1.8.2-2.6.6c-.7.4-1.3 1-1.8 1.7s-.8 1.5-1.1 2.4c-.2.9-.4 1.7-.4 2.6 0 .9.1 1.8.4 2.7.2 1 .6 1.8 1.1 2.7.5.8 1.2 1.5 1.9 2 .7.4 1.6.7 2.7.7zM300.3 71.9c-.2-1.5-.7-2.6-1.6-3.5-.9-.8-2-1.2-3.4-1.2-.8 0-1.6.2-2.4.5-.7.4-1.4.9-1.9 1.5-.6.7-1 1.5-1.3 2.4-.3.9-.5 2-.5 3.2 0 1.5.3 2.8.9 4 .6 1.1 1.3 2 2.3 2.7 1 .6 2 1 3.2 1 1 0 2-.2 3-.7 1-.5 1.8-1.1 2.5-2l.6.5c-.7.9-1.4 1.7-2.2 2.2-.8.5-1.6.9-2.4 1-.8.2-1.5.3-2.2.3-1.2 0-2.3-.2-3.3-.6-1-.4-1.8-1-2.6-1.8-.7-.8-1.3-1.7-1.7-2.7-.4-1-.6-2.1-.6-3.3 0-1.1.2-2.2.5-3.3.3-1.1.9-2 1.5-2.9.7-.9 1.5-1.5 2.6-2 1-.5 2.2-.8 3.6-.8.9 0 1.7.1 2.5.4.8.2 1.6.6 2.3 1.1l-.1-1.3h1.3v5.5h-.6zM310.5 83.2v-.8c.5 0 .8-.1 1.1-.4.3-.3.5-.6.6-1 .2-.4.4-1 .6-1.5l4.9-13.4h.6l5.3 13.5c.1.3.3.8.4 1.3.2.5.2 1 .2 1.3h1.6v1h-5.5v-.8c.6 0 1-.2 1.2-.4.2-.3.3-.6.2-.9 0-.3-.1-.7-.2-1l-.8-2.2-6.2.1-.8 2.5c-.1.4-.2.7-.3.9-.1.2-.2.5-.3.7h1.8v1h-4.4zm4.4-6.1h5.5l-1.7-4.5c-.2-.5-.4-1-.5-1.5-.2-.5-.4-1-.5-1.5-.2.4-.3.9-.5 1.3s-.3.9-.5 1.4l-1.8 4.8zM347.3 71.6c0-.9-.1-1.7-.3-2.3-.2-.6-.5-1.1-.9-1.4-.4-.3-1.1-.5-1.9-.4h-2v14.1c0 .3 0 .6-.1.8h2v1h-5.6v-.8c.6 0 1-.2 1.2-.4.2-.3.3-.6.4-1V67.6h-2.5c-1 0-1.7.3-2.1 1-.4.7-.6 1.7-.6 3.1h-.9l.1-5H348l.1 5h-.8zM367.9 71.6c0-.8-.2-1.5-.5-2.2-.3-.7-.8-1.2-1.4-1.7-.6-.4-1.4-.6-2.3-.6-1 0-1.7.3-2.3.8-.5.6-.8 1.2-.8 2 0 .7.2 1.2.6 1.7.4.5.9.8 1.5 1.2.6.3 1.3.7 1.9 1l1.8.9c.6.3 1.2.7 1.6 1.1.5.4.9.9 1.2 1.4.3.5.4 1.2.4 2 0 .9-.2 1.7-.7 2.3-.4.7-1.1 1.2-1.9 1.6-.8.4-1.8.6-3 .6-.7 0-1.5-.1-2.2-.3-.8-.2-1.4-.5-2-.9l.1 1h-1.2l-.1-5.1h.9c.1 1.4.6 2.5 1.5 3.2.9.7 2 1.1 3.2 1.1.6 0 1.2-.1 1.7-.3.5-.2.9-.6 1.3-1 .3-.4.5-1 .5-1.6 0-.7-.2-1.3-.6-1.8-.4-.5-.9-.9-1.5-1.2-.6-.3-1.2-.7-1.9-1l-1.8-.9c-.6-.3-1.1-.6-1.6-1s-.9-.9-1.2-1.4c-.3-.5-.4-1.2-.4-2 0-.4.1-.9.2-1.3.1-.5.4-.9.7-1.4.4-.4.8-.8 1.5-1.1.6-.3 1.4-.4 2.4-.4.6 0 1.3.1 2 .2.8.2 1.5.5 2.1 1l-.1-1h1.2v5.2h-.8zM105.4 50.5H92.6v-1c3 0 4.3-2.8 4.3-7.5V9c0-4.2-1.9-6-4.9-6V2h19.1v1c-3 0-5.7 1.2-5.7 6.1v41.4zm23.8 0h-19.1v-1.1c6.4-.3 16.7-2.3 18-13.8h1v14.9zM163.5 41.7l1 .5c-.9 3.4-4.8 8.9-13.5 8.9-8.8 0-14.9-7.7-14.9-16.3 0-9.2 5.6-15.8 13.8-16.6v1c-3.4 1.2-6.1 7.1-6.1 13.7h14.8c0-7.8-2.5-12.5-5.5-13.7v-1c8.2.6 12.7 5.6 12.7 15.8h-22c.4 8.1 4.2 11.6 9.2 12.5 3.8.5 9-1.5 10.5-4.8zM211 50.3v1.1c-5.1-.6-7.7-2.6-8.8-3.6-1.2-1.1-1.8-3.1-1.3-4.8.7-2.5 3.3-4 5.9-3.3 2.5.7 4 3.3 3.3 5.9-.4 1.3-1.3 2.2-2.2 2.6-.8.4-.1 1.6 3.1 2.1zm20.4-15.8c.6 10.7-6.9 16.1-15.5 16.9v-1.1c7.6-1.1 10.9-7.4 9.1-13.4-1.3-4.3-7.4-11.9-24.1-9l1.3-7.2c22.6-4.5 28.9 6.8 29.2 13.8zM227.7 9h-23.5l1.4-7.9h24.5L227.7 9zM267 39.2l-3.2 11.7h-26l5.2-7.6h16.4c2.4 0 5-1.2 6.5-4h1.1zm-3.5-26.9c0 4.7-3 9.2-8.7 16.1l-1.1-.8C265.9 8 243.2 1.1 239 14l-1.1-.2C239 .4 251.3.4 251.3.4c7.2 0 12.2 5.4 12.2 11.9zM180.5 0h3v51h-3z"/></svg>