<?xml version="1.0" standalone="no"?>
<!DOCTYPE svg PUBLIC "-//W3C//DTD SVG 20010904//EN"
 "http://www.w3.org/TR/2001/REC-SVG-20010904/DTD/svg10.dtd">
<svg version="1.0" xmlns="http://www.w3.org/2000/svg"
 width="700.000000pt" height="700.000000pt" viewBox="0 0 700.000000 700.000000"
 preserveAspectRatio="xMidYMid meet">
<metadata>
Created by potrace 1.14, written by Peter Selinger 2001-2017
</metadata>
<g transform="translate(0.000000,700.000000) scale(0.100000,-0.100000)"
fill="#000000" stroke="none">
<path d="M5175 6165 c-227 -36 -437 -115 -619 -233 -284 -185 -482 -468 -571
-817 -28 -109 -55 -262 -55 -312 0 -29 3 -32 43 -39 23 -4 48 -8 55 -8 7 -1
28 34 46 76 69 158 166 297 264 375 26 21 49 41 52 44 13 17 123 80 188 108
275 121 588 109 866 -31 511 -258 664 -860 391 -1538 -49 -121 -124 -274 -190
-385 -25 -42 -45 -80 -45 -83 1 -4 26 -25 57 -46 54 -37 57 -38 70 -20 8 10
24 30 36 44 12 14 78 96 148 183 392 489 603 846 678 1143 30 118 33 138 36
279 8 257 -52 477 -188 700 -102 167 -309 351 -497 443 -75 36 -256 97 -315
106 -22 3 -64 9 -92 14 -78 13 -266 11 -358 -3z"/>
<path d="M515 6097 c-3 -7 -16 -77 -30 -157 -14 -80 -27 -156 -30 -170 -3 -13
-11 -63 -20 -110 -8 -47 -17 -96 -19 -110 -19 -98 -46 -255 -46 -264 0 -14
2466 -15 2478 -1 8 10 22 52 78 245 14 47 42 141 64 210 21 69 55 177 74 240
20 64 36 118 36 122 0 4 -581 7 -1291 6 -977 0 -1291 -2 -1294 -11z"/>
<path d="M1057 4154 c-1 -1 -63 -4 -137 -8 -74 -3 -144 -8 -155 -10 -11 -2
-58 -7 -105 -11 -47 -4 -87 -8 -90 -10 -3 -2 -34 -6 -70 -10 -36 -4 -67 -8
-70 -10 -3 -2 -25 -6 -50 -9 -25 -3 -56 -8 -70 -11 -13 -2 -40 -7 -60 -10 -84
-13 -94 -19 -102 -61 -3 -21 -9 -50 -11 -64 -5 -26 -32 -173 -42 -225 -3 -16
-19 -104 -35 -195 -16 -91 -32 -179 -36 -197 -6 -29 -4 -31 17 -28 44 5 124
17 141 20 9 2 48 7 85 10 37 4 70 9 73 10 12 7 278 19 425 19 148 0 322 -9
370 -19 11 -2 38 -6 60 -9 314 -39 688 -184 900 -350 22 -17 49 -38 59 -46 53
-41 181 -176 236 -250 110 -150 191 -348 215 -530 4 -30 7 -102 7 -160 -4
-516 -367 -927 -919 -1038 l-88 -18 -2 -57 -2 -56 62 5 c144 12 397 74 557
136 309 120 583 330 749 573 154 225 230 440 266 755 8 65 9 322 1 365 -2 17
-8 54 -11 84 -32 266 -178 577 -368 788 -73 81 -74 82 -152 150 -69 59 -205
156 -255 181 -14 7 -38 20 -55 30 -144 87 -466 191 -700 227 -22 3 -53 8 -70
10 -32 5 -90 11 -200 21 -65 5 -363 12 -368 8z"/>
<path d="M6847 2033 c-110 -179 -275 -293 -502 -350 -16 -4 -447 -10 -957 -13
l-927 -5 -270 -394 c-149 -216 -271 -395 -271 -397 0 -2 616 -4 1369 -4 l1369
0 16 48 c8 26 31 106 50 177 19 72 76 279 126 460 50 182 103 372 116 424 14
52 27 98 30 103 3 4 -21 8 -54 8 l-59 0 -36 -57z"/>
<path d="M369 2046 c-96 -28 -161 -67 -229 -137 -130 -133 -172 -328 -110
-515 50 -150 204 -291 441 -403 109 -52 286 -115 353 -125 21 -4 41 -8 45 -10
3 -2 22 -7 41 -10 19 -3 46 -8 60 -10 14 -2 45 -7 70 -10 l45 -6 0 57 c0 50
-3 58 -20 61 -126 20 -265 75 -309 121 -42 44 -33 77 28 110 62 33 143 121
177 191 91 187 46 418 -110 568 -125 121 -314 167 -482 118z"/>
</g>
</svg>
