<svg version="1.1" xmlns="http://www.w3.org/2000/svg" xmlns:xlink="http://www.w3.org/1999/xlink" x="0px" y="0px"
	 viewBox="0 0 369.7 83.6" style="enable-background:new 0 0 369.7 83.6;" xml:space="preserve">
<style type="text/css">
	.st0{fill:#1A2F50;}
</style>
<g>
	<path class="st0" d="M13.4,71.9c-0.2-1.5-0.7-2.6-1.6-3.5c-0.9-0.8-2-1.2-3.4-1.2c-0.8,0-1.6,0.2-2.4,0.5c-0.7,0.4-1.4,0.9-1.9,1.5
		c-0.6,0.7-1,1.5-1.3,2.4c-0.3,0.9-0.5,2-0.5,3.2c0,1.5,0.3,2.8,0.9,4c0.6,1.1,1.3,2,2.3,2.7c1,0.6,2,1,3.2,1c1,0,2-0.2,3-0.7
		c1-0.5,1.8-1.1,2.5-2l0.6,0.5c-0.7,0.9-1.4,1.7-2.2,2.2c-0.8,0.5-1.6,0.9-2.4,1c-0.8,0.2-1.5,0.3-2.2,0.3c-1.2,0-2.3-0.2-3.3-0.6
		c-1-0.4-1.8-1-2.6-1.8c-0.7-0.8-1.3-1.7-1.7-2.7c-0.4-1-0.6-2.1-0.6-3.3c0-1.1,0.2-2.2,0.5-3.3c0.3-1.1,0.9-2,1.5-2.9
		s1.5-1.5,2.6-2c1-0.5,2.2-0.8,3.6-0.8c0.9,0,1.7,0.1,2.5,0.4c0.8,0.2,1.6,0.6,2.3,1.1l-0.1-1.3h1.3v5.5H13.4z"/>
	<path class="st0" d="M23.6,83.2v-0.8c0.5,0,0.8-0.1,1.1-0.4s0.5-0.6,0.6-1c0.2-0.4,0.4-1,0.6-1.5l4.9-13.4h0.6l5.3,13.5
		c0.1,0.3,0.3,0.8,0.4,1.3c0.2,0.5,0.2,1,0.2,1.3c0.3,0,0.5,0,0.8,0c0.3,0,0.5,0,0.8,0v1h-5.5v-0.8c0.6,0,1-0.2,1.2-0.4
		c0.2-0.3,0.3-0.6,0.2-0.9c0-0.3-0.1-0.7-0.2-1L33.8,78l-6.2,0.1l-0.8,2.5c-0.1,0.4-0.2,0.7-0.3,0.9c-0.1,0.2-0.2,0.5-0.3,0.7
		c0.3,0,0.6,0,0.9,0c0.3,0,0.6,0,0.9,0v1H23.6z M28,77.1h5.5l-1.7-4.5c-0.2-0.5-0.4-1-0.5-1.5c-0.2-0.5-0.4-1-0.5-1.5h0
		c-0.2,0.4-0.3,0.9-0.5,1.3c-0.2,0.4-0.3,0.9-0.5,1.4L28,77.1z"/>
	<path class="st0" d="M48.5,83.2v-0.8c0.6,0,1-0.2,1.2-0.4s0.3-0.6,0.4-1.1c0-0.5,0-1,0-1.6v-10c0-0.4,0-0.8,0-1.1
		c0-0.3,0-0.6,0-0.8c-0.3,0-0.6,0-0.9,0c-0.3,0-0.6,0-0.9,0v-1c0.9,0,1.7,0,2.6,0c0.9,0,1.8,0,2.7,0c1.8,0,3.3,0.3,4.3,1
		c1,0.7,1.5,1.7,1.5,3.1c0,0.5-0.1,1-0.4,1.5c-0.3,0.5-0.7,1-1.3,1.3c-0.6,0.4-1.3,0.7-2.2,0.8v0c1.7,0,3.1,0.4,4,1.2
		c0.9,0.8,1.3,1.8,1.3,3c0,1-0.2,1.8-0.7,2.5c-0.5,0.7-1.2,1.2-2,1.6c-0.8,0.4-1.8,0.6-2.9,0.6H48.5z M52.1,82.3c0.3,0,0.6,0,0.9,0
		c0.4,0,0.7,0,1,0c0.3,0,0.5,0,0.6,0c1.2,0,2.2-0.3,3-0.9c0.8-0.6,1.1-1.5,1.1-2.7c0-1-0.2-1.7-0.6-2.3c-0.4-0.5-0.9-0.9-1.5-1.1
		c-0.6-0.2-1.3-0.3-2-0.3c-0.5,0-0.9,0-1.3,0c-0.4,0-0.8,0-1.2,0.1v5.4c0,0.4,0,0.8,0,1.1C52.2,81.8,52.1,82.1,52.1,82.3z
		 M52.2,74.1l1.7,0c0.9,0,1.6-0.2,2.1-0.6c0.5-0.4,0.9-0.8,1.1-1.3c0.2-0.5,0.3-1.1,0.3-1.7c0-0.9-0.2-1.5-0.6-2
		c-0.4-0.4-0.8-0.7-1.4-0.9c-0.5-0.2-1.1-0.2-1.6-0.2s-0.9,0.1-1.2,0.2c-0.3,0.1-0.4,0.4-0.5,0.7c-0.1,0.3-0.1,0.8-0.1,1.4V74.1z"/>
	<path class="st0" d="M76.9,67.4c-0.6,0-1,0.2-1.2,0.4c-0.2,0.3-0.4,0.6-0.4,1c0,0.4,0,0.9,0,1.5v10.1c0,0.4,0,0.8,0,1.1
		c0,0.3,0,0.6-0.1,0.8c0.3,0,0.6,0,0.9,0c0.3,0,0.6,0,0.9,0v1h-5.4v-0.8c0.6,0,1-0.2,1.2-0.4c0.2-0.2,0.3-0.6,0.4-1
		c0-0.4,0-0.9,0-1.5V69.3c0-0.3,0-0.6,0-0.9c0-0.3,0-0.6,0-0.8c-0.3,0-0.6,0-0.9,0c-0.3,0-0.6,0-0.9,0v-1h5.4V67.4z"/>
	<path class="st0" d="M101,83.6l-9.5-12.8c-0.1-0.2-0.3-0.4-0.4-0.6c-0.1-0.2-0.3-0.4-0.4-0.6h0l0.1,10.2c0,0.4,0,0.8,0,1.2
		c0,0.4,0,0.8,0,1.2c0.3,0,0.6,0,0.9,0c0.3,0,0.6,0,0.9,0v1H88v-0.8c0.5,0,0.8-0.1,1.1-0.3c0.2-0.2,0.4-0.5,0.4-0.8
		c0.1-0.3,0.1-0.6,0.1-0.8l0-11.4c0-0.3,0-0.5,0-0.8c0-0.3,0-0.5,0-0.8c-0.3,0-0.5,0-0.8,0c-0.3,0-0.5,0-0.8,0v-1h2.8l8.9,11.9
		c0.2,0.3,0.4,0.5,0.6,0.8c0.2,0.3,0.4,0.5,0.6,0.8h0l0-10.9c0-0.3,0-0.6,0-0.9c0-0.3,0-0.6,0-0.8c-0.3,0-0.6,0-0.9,0
		c-0.3,0-0.6,0-0.9,0v-1h4.4v0.8c-0.6,0-1,0.2-1.2,0.4c-0.2,0.3-0.3,0.6-0.4,1c0,0.4,0,0.9,0,1.5l0,13.3H101z"/>
	<path class="st0" d="M122.9,77.1c0-0.7-0.1-1.2-0.3-1.5c-0.2-0.3-0.5-0.5-0.9-0.5c-0.4-0.1-1-0.1-1.6,0l-1.7,0.1v5.5
		c0,0.4,0,0.8,0,1.1c0,0.3,0,0.6-0.1,0.8l4.5-0.1c0.7,0,1.3-0.1,1.8-0.3c0.5-0.2,0.9-0.6,1.2-1.1c0.3-0.5,0.4-1.3,0.4-2.2h0.8
		l-0.1,4.6h-12.3v-0.8c0.6,0,1-0.2,1.2-0.4c0.2-0.2,0.3-0.6,0.4-1c0-0.4,0-0.9,0-1.5V69.3c0-0.3,0-0.6,0-0.9c0-0.3,0-0.6,0-0.8
		c-0.3,0-0.6,0-0.9,0c-0.3,0-0.6,0-0.9,0v-1H126l0.1,4.2h-0.8c0-0.9-0.1-1.6-0.4-2.1c-0.3-0.5-0.7-0.8-1.2-1s-1-0.2-1.6-0.2l-2,0
		c-0.6,0-1,0.1-1.3,0.3s-0.4,0.5-0.5,0.9c-0.1,0.4-0.1,0.9-0.1,1.6v3.8l4.5,0l-0.2-2h1v5H122.9z"/>
	<path class="st0" d="M150.3,71.6c0-0.9-0.1-1.7-0.3-2.3c-0.2-0.6-0.5-1.1-0.9-1.4c-0.4-0.3-1.1-0.5-1.9-0.4h-2l0,13
		c0,0.4,0,0.8,0,1.1c0,0.3,0,0.6-0.1,0.8c0.3,0,0.7,0,1,0c0.3,0,0.7,0,1,0v1h-5.6v-0.8c0.6,0,1-0.2,1.2-0.4c0.2-0.3,0.3-0.6,0.4-1
		c0-0.4,0-0.9,0-1.5l0-12.1l-2.5,0c-1,0-1.7,0.3-2.1,1c-0.4,0.7-0.6,1.7-0.6,3.1h-0.9l0.1-5h13.9l0.1,5H150.3z"/>
	<path class="st0" d="M176.3,82.5c0.6,0,1-0.2,1.2-0.4c0.2-0.2,0.3-0.6,0.4-1c0-0.4,0-0.9,0-1.5V69.3c0-0.3,0-0.6,0-0.9
		c0-0.3,0-0.6,0-0.8c-0.3,0-0.6,0-0.9,0c-0.3,0-0.6,0-0.9,0v-1l5.6,0c1.4,0,2.7,0.2,3.9,0.5c1.2,0.3,2.2,0.8,3.1,1.5
		c0.9,0.7,1.5,1.6,2,2.6c0.5,1.1,0.7,2.3,0.7,3.7c0,1.1-0.2,2.1-0.6,3.1c-0.4,1-1,1.9-1.7,2.7c-0.8,0.8-1.7,1.4-2.8,1.8
		c-1.1,0.5-2.4,0.7-3.9,0.7h-6.3V82.5z M180,80.4c0,0.4,0,0.8,0,1.1c0,0.3,0,0.6-0.1,0.8c0.4,0,0.8,0,1.2,0c0.4,0,0.7,0,0.9,0
		c0.2,0,0.4,0,0.5,0c1,0,2-0.2,2.8-0.6c0.8-0.4,1.5-0.9,2.1-1.6c0.6-0.7,1.1-1.5,1.4-2.4c0.3-0.9,0.5-1.9,0.5-3
		c0-1.5-0.3-2.8-0.8-3.9c-0.5-1.1-1.4-2-2.5-2.6c-1.1-0.6-2.6-0.9-4.3-0.9c-0.6,0-1,0.1-1.2,0.4c-0.2,0.2-0.4,0.6-0.4,1
		c0,0.4,0,0.9,0,1.5V80.4z"/>
	<path class="st0" d="M202.8,71.8l-0.6-0.5c0.2-0.2,0.4-0.5,0.5-1c0.2-0.4,0.3-0.9,0.5-1.4c0.1-0.5,0.1-1,0.1-1.5
		c-0.1,0-0.2,0.1-0.3,0.1c-0.1,0-0.2,0-0.3,0c-0.3,0-0.6-0.1-0.8-0.3c-0.2-0.2-0.3-0.5-0.3-0.8c0-0.4,0.1-0.8,0.4-1
		c0.3-0.2,0.6-0.4,0.9-0.4c0.6,0,1,0.2,1.3,0.6c0.3,0.4,0.4,0.9,0.4,1.5c0,0.4-0.1,0.9-0.2,1.5c-0.2,0.6-0.4,1.1-0.6,1.7
		C203.5,71,203.2,71.5,202.8,71.8z"/>
	<path class="st0" d="M212.2,83.2v-0.8c0.5,0,0.8-0.1,1.1-0.4c0.3-0.3,0.5-0.6,0.6-1c0.2-0.4,0.4-1,0.6-1.5l4.9-13.4h0.6l5.3,13.5
		c0.1,0.3,0.3,0.8,0.4,1.3c0.2,0.5,0.2,1,0.2,1.3c0.3,0,0.5,0,0.8,0c0.3,0,0.5,0,0.8,0v1h-5.5v-0.8c0.6,0,1-0.2,1.2-0.4
		c0.2-0.3,0.3-0.6,0.2-0.9c0-0.3-0.1-0.7-0.2-1l-0.8-2.2l-6.2,0.1l-0.8,2.5c-0.1,0.4-0.2,0.7-0.3,0.9c-0.1,0.2-0.2,0.5-0.3,0.7
		c0.3,0,0.6,0,0.9,0c0.3,0,0.6,0,0.9,0v1H212.2z M216.6,77.1h5.5l-1.7-4.5c-0.2-0.5-0.4-1-0.5-1.5c-0.2-0.5-0.4-1-0.5-1.5h0
		c-0.2,0.4-0.3,0.9-0.5,1.3c-0.2,0.4-0.3,0.9-0.5,1.4L216.6,77.1z"/>
	<path class="st0" d="M242.5,83.5L237,70.8c-0.3-0.8-0.6-1.5-0.7-2c-0.1-0.5-0.2-0.9-0.3-1.3c-0.2,0-0.4,0-0.7,0s-0.4,0-0.7,0v-1
		h5.5l0,0.8c-0.8,0-1.3,0.3-1.4,0.7c-0.2,0.4-0.1,1.1,0.2,1.8c0.4,0.9,0.7,1.8,1.1,2.7c0.3,0.9,0.7,1.8,1.2,2.8
		c0.4,0.9,0.7,1.7,1.1,2.6c0.4,0.8,0.6,1.5,0.8,2h0c0.2-0.6,0.4-1.1,0.5-1.6c0.2-0.5,0.4-1.1,0.7-1.8c0.5-1.3,0.9-2.5,1.2-3.4
		c0.3-0.9,0.6-1.7,0.8-2.4c0.2-0.6,0.4-1.2,0.6-1.7c0.1-0.4,0.3-0.8,0.4-1c0.1-0.3,0.2-0.5,0.3-0.7c-0.3,0-0.6,0-0.9,0
		c-0.3,0-0.6,0-0.9,0v-1h4.8v0.8c-0.7,0-1.2,0.2-1.6,0.5c-0.4,0.3-0.7,0.9-1,1.8c0,0.1-0.1,0.2-0.1,0.3s-0.1,0.4-0.2,0.7
		c-0.1,0.3-0.3,0.7-0.5,1.3c-0.2,0.6-0.5,1.4-0.8,2.3c-0.4,1-0.8,2.2-1.4,3.7c-0.5,1.5-1.2,3.3-2,5.4H242.5z"/>
	<path class="st0" d="M268,83.6c-1.5,0-2.8-0.3-3.9-0.8c-1.1-0.5-2-1.2-2.6-2c-0.7-0.8-1.2-1.8-1.5-2.8c-0.3-1-0.5-2.1-0.5-3.1
		c0-1,0.2-2,0.5-3s0.8-2,1.5-2.8s1.6-1.5,2.6-2.1c1-0.5,2.3-0.8,3.7-0.8c1.5,0,2.7,0.3,3.8,0.8c1.1,0.5,1.9,1.2,2.6,2.1
		c0.7,0.9,1.2,1.8,1.5,2.8c0.3,1,0.5,2,0.5,3c0,1-0.2,2-0.5,3c-0.3,1-0.8,2-1.5,2.8s-1.6,1.6-2.6,2.1
		C270.6,83.4,269.4,83.6,268,83.6z M268.1,82.7c1,0,1.8-0.2,2.6-0.6c0.7-0.4,1.3-1,1.8-1.7c0.5-0.7,0.8-1.5,1.1-2.4
		c0.2-0.9,0.4-1.7,0.4-2.6c0-1-0.1-2-0.4-2.9c-0.3-1-0.7-1.8-1.2-2.6c-0.5-0.8-1.2-1.4-1.9-1.9c-0.8-0.5-1.6-0.7-2.6-0.7
		c-1,0-1.8,0.2-2.6,0.6c-0.7,0.4-1.3,1-1.8,1.7s-0.8,1.5-1.1,2.4c-0.2,0.9-0.4,1.7-0.4,2.6c0,0.9,0.1,1.8,0.4,2.7
		c0.2,1,0.6,1.8,1.1,2.7c0.5,0.8,1.2,1.5,1.9,2C266.1,82.4,267,82.7,268.1,82.7z"/>
	<path class="st0" d="M300.3,71.9c-0.2-1.5-0.7-2.6-1.6-3.5c-0.9-0.8-2-1.2-3.4-1.2c-0.8,0-1.6,0.2-2.4,0.5
		c-0.7,0.4-1.4,0.9-1.9,1.5c-0.6,0.7-1,1.5-1.3,2.4c-0.3,0.9-0.5,2-0.5,3.2c0,1.5,0.3,2.8,0.9,4c0.6,1.1,1.3,2,2.3,2.7
		c1,0.6,2,1,3.2,1c1,0,2-0.2,3-0.7c1-0.5,1.8-1.1,2.5-2l0.6,0.5c-0.7,0.9-1.4,1.7-2.2,2.2c-0.8,0.5-1.6,0.9-2.4,1
		c-0.8,0.2-1.5,0.3-2.2,0.3c-1.2,0-2.3-0.2-3.3-0.6c-1-0.4-1.8-1-2.6-1.8c-0.7-0.8-1.3-1.7-1.7-2.7c-0.4-1-0.6-2.1-0.6-3.3
		c0-1.1,0.2-2.2,0.5-3.3c0.3-1.1,0.9-2,1.5-2.9c0.7-0.9,1.5-1.5,2.6-2c1-0.5,2.2-0.8,3.6-0.8c0.9,0,1.7,0.1,2.5,0.4
		c0.8,0.2,1.6,0.6,2.3,1.1l-0.1-1.3h1.3v5.5H300.3z"/>
	<path class="st0" d="M310.5,83.2v-0.8c0.5,0,0.8-0.1,1.1-0.4c0.3-0.3,0.5-0.6,0.6-1c0.2-0.4,0.4-1,0.6-1.5l4.9-13.4h0.6l5.3,13.5
		c0.1,0.3,0.3,0.8,0.4,1.3c0.2,0.5,0.2,1,0.2,1.3c0.3,0,0.5,0,0.8,0c0.3,0,0.5,0,0.8,0v1h-5.5v-0.8c0.6,0,1-0.2,1.2-0.4
		c0.2-0.3,0.3-0.6,0.2-0.9c0-0.3-0.1-0.7-0.2-1l-0.8-2.2l-6.2,0.1l-0.8,2.5c-0.1,0.4-0.2,0.7-0.3,0.9c-0.1,0.2-0.2,0.5-0.3,0.7
		c0.3,0,0.6,0,0.9,0c0.3,0,0.6,0,0.9,0v1H310.5z M314.9,77.1h5.5l-1.7-4.5c-0.2-0.5-0.4-1-0.5-1.5c-0.2-0.5-0.4-1-0.5-1.5h0
		c-0.2,0.4-0.3,0.9-0.5,1.3c-0.2,0.4-0.3,0.9-0.5,1.4L314.9,77.1z"/>
	<path class="st0" d="M347.3,71.6c0-0.9-0.1-1.7-0.3-2.3c-0.2-0.6-0.5-1.1-0.9-1.4c-0.4-0.3-1.1-0.5-1.9-0.4h-2l0,13
		c0,0.4,0,0.8,0,1.1c0,0.3,0,0.6-0.1,0.8c0.3,0,0.7,0,1,0c0.3,0,0.7,0,1,0v1h-5.6v-0.8c0.6,0,1-0.2,1.2-0.4c0.2-0.3,0.3-0.6,0.4-1
		c0-0.4,0-0.9,0-1.5l0-12.1l-2.5,0c-1,0-1.7,0.3-2.1,1c-0.4,0.7-0.6,1.7-0.6,3.1H334l0.1-5H348l0.1,5H347.3z"/>
	<path class="st0" d="M367.9,71.6c0-0.8-0.2-1.5-0.5-2.2c-0.3-0.7-0.8-1.2-1.4-1.7c-0.6-0.4-1.4-0.6-2.3-0.6c-1,0-1.7,0.3-2.3,0.8
		c-0.5,0.6-0.8,1.2-0.8,2c0,0.7,0.2,1.2,0.6,1.7c0.4,0.5,0.9,0.8,1.5,1.2c0.6,0.3,1.3,0.7,1.9,1c0.6,0.3,1.2,0.6,1.8,0.9
		c0.6,0.3,1.2,0.7,1.6,1.1c0.5,0.4,0.9,0.9,1.2,1.4c0.3,0.5,0.4,1.2,0.4,2c0,0.9-0.2,1.7-0.7,2.3c-0.4,0.7-1.1,1.2-1.9,1.6
		c-0.8,0.4-1.8,0.6-3,0.6c-0.7,0-1.5-0.1-2.2-0.3c-0.8-0.2-1.4-0.5-2-0.9l0.1,1h-1.2l-0.1-5.1h0.9c0.1,1.4,0.6,2.5,1.5,3.2
		c0.9,0.7,2,1.1,3.2,1.1c0.6,0,1.2-0.1,1.7-0.3c0.5-0.2,0.9-0.6,1.3-1c0.3-0.4,0.5-1,0.5-1.6c0-0.7-0.2-1.3-0.6-1.8
		c-0.4-0.5-0.9-0.9-1.5-1.2c-0.6-0.3-1.2-0.7-1.9-1c-0.6-0.3-1.2-0.6-1.8-0.9c-0.6-0.3-1.1-0.6-1.6-1c-0.5-0.4-0.9-0.9-1.2-1.4
		c-0.3-0.5-0.4-1.2-0.4-2c0-0.4,0.1-0.9,0.2-1.3c0.1-0.5,0.4-0.9,0.7-1.4c0.4-0.4,0.8-0.8,1.5-1.1c0.6-0.3,1.4-0.4,2.4-0.4
		c0.6,0,1.3,0.1,2,0.2c0.8,0.2,1.5,0.5,2.1,1l-0.1-1h1.2v5.2H367.9z"/>
</g>
<g>
	<g>
		<path class="st0" d="M105.4,50.5H92.6v-1c3,0,4.3-2.8,4.3-7.5V9c0-4.2-1.9-6-4.9-6V2h19.1v1c-3,0-5.7,1.2-5.7,6.1V50.5z
			 M129.2,50.5h-19.1v-1.1c6.4-0.3,16.7-2.3,18-13.8h1V50.5z"/>
	</g>
	<g>
		<path class="st0" d="M163.5,41.7l1,0.5c-0.9,3.4-4.8,8.9-13.5,8.9c-8.8,0-14.9-7.7-14.9-16.3c0-9.2,5.6-15.8,13.8-16.6v1
			c-3.4,1.2-6.1,7.1-6.1,13.7h14.8c0-7.8-2.5-12.5-5.5-13.7v-1c8.2,0.6,12.7,5.6,12.7,15.8h-22c0.4,8.1,4.2,11.6,9.2,12.5
			C156.8,47,162,45,163.5,41.7z"/>
	</g>
</g>
<g>
	<g>
		<path class="st0" d="M211,50.3v1.1c-5.1-0.6-7.7-2.6-8.8-3.6c-1.2-1.1-1.8-3.1-1.3-4.8c0.7-2.5,3.3-4,5.9-3.3
			c2.5,0.7,4,3.3,3.3,5.9c-0.4,1.3-1.3,2.2-2.2,2.6C207.1,48.6,207.8,49.8,211,50.3z M231.4,34.5c0.6,10.7-6.9,16.1-15.5,16.9v-1.1
			c7.6-1.1,10.9-7.4,9.1-13.4c-1.3-4.3-7.4-11.9-24.1-9l1.3-7.2C224.8,16.2,231.1,27.5,231.4,34.5z M227.7,9h-23.5l1.4-7.9h24.5
			L227.7,9z"/>
	</g>
	<g>
		<path class="st0" d="M267,39.2l-3.2,11.7h-26l5.2-7.6h16.4c2.4,0,5-1.2,6.5-4H267z M263.5,12.3c0,4.7-3,9.2-8.7,16.1l-1.1-0.8
			C265.9,8,243.2,1.1,239,14l-1.1-0.2c1.1-13.4,13.4-13.4,13.4-13.4C258.5,0.4,263.5,5.8,263.5,12.3z"/>
	</g>
</g>
<rect x="180.5" y="0" class="st0" width="3" height="51"/>
</svg>
